<svg xmlns="http://www.w3.org/2000/svg" viewBox="0 0 80 80">
  <polyline points="64,62 72,48 66,48 74,33" fill="none" stroke="#E8B800" stroke-width="5" stroke-linecap="round" stroke-linejoin="round"/>
  <ellipse cx="35" cy="60" rx="18" ry="17" fill="#FFD700"/>
  <polygon points="18,30 11,10 27,24" fill="#FFD700"/>
  <polygon points="19,28 14,14 25,23" fill="#1A1A1A"/>
  <polygon points="52,30 59,10 43,24" fill="#FFD700"/>
  <polygon points="51,28 56,14 45,23" fill="#1A1A1A"/>
  <circle cx="35" cy="36" r="22" fill="#FFD700"/>
  <circle cx="27" cy="32" r="5" fill="#1A1A1A"/>
  <circle cx="43" cy="32" r="5" fill="#1A1A1A"/>
  <circle cx="28.5" cy="30" r="2" fill="#FFF"/>
  <circle cx="44.5" cy="30" r="2" fill="#FFF"/>
  <circle cx="18" cy="40" r="7" fill="#FF6B6B" opacity="0.8"/>
  <circle cx="52" cy="40" r="7" fill="#FF6B6B" opacity="0.8"/>
  <ellipse cx="35" cy="37" rx="2" ry="1.5" fill="#555"/>
  <path d="M29,41 Q35,47 41,41" stroke="#333" stroke-width="1.5" fill="none" stroke-linecap="round"/>
  <path d="M20,55 Q25,52 30,55" stroke="#B8900A" stroke-width="2" fill="none" stroke-linecap="round"/>
  <path d="M22,62 Q27,59 32,62" stroke="#B8900A" stroke-width="2" fill="none" stroke-linecap="round"/>
  <ellipse cx="27" cy="75" rx="7" ry="4" fill="#E8B800"/>
  <ellipse cx="43" cy="75" rx="7" ry="4" fill="#E8B800"/>
</svg>
