<svg width="208" height="231" viewBox="0 0 208 231" fill="none" xmlns="http://www.w3.org/2000/svg">
<g id="hand">
<rect width="208" height="231" fill="white"/>
<path id="Hand" d="M95.2195 221.236C88.0195 221.636 67.2195 211.831 61.2195 203.736C55.2196 195.642 27.0196 140.636 20.2196 132.236C11.7196 121.736 6.91802 106.219 12.2196 103.236C20.2195 98.7364 29.7195 101.736 37.7195 109.236C45.7195 116.736 45.8052 128.092 49.7195 132.236C58.2195 141.236 59.7196 149.236 68.2196 145.736C74.7195 143.06 69.7195 124.236 71.2195 112.736C73.1596 97.8623 65.7195 84.6266 65.7195 74.7363C65.7195 64.8461 67.2195 56.2363 65.7195 44.7363C64.4262 34.8203 64.7196 31.2363 68.2196 23.2363C71.7196 15.2363 73.2195 15.2363 80.2195 15.2363C87.2195 15.2363 88.7196 46.0947 88.7196 68.2363C88.7196 82.7363 91.2195 98.7364 95.2195 103.236C97.9115 106.265 101.72 106.736 101.72 103.236C101.72 97.2364 104.22 85.8397 104.22 79.7364C104.22 69.2364 102.22 43.2363 101.72 31.2363C101.22 19.2363 105.72 11.6563 111.22 9.23634C115.22 7.47639 118.72 5.23634 122.22 9.23634C125.72 13.2363 126.72 32.7363 126.72 46.2363C126.72 59.7363 124.22 90.7364 126.72 98.7364C129.22 106.736 132.798 101.789 135.22 95.7363C136.22 93.2363 140.553 74.2363 140.22 63.7363C140.72 54.7363 142.72 25.7363 147.72 20.7363C152.72 15.7363 160.22 18.7363 163.72 23.2363C167.22 27.7363 163.72 30.2363 163.72 43.2363C163.72 56.2363 160.22 86.2364 156.22 98.7364C152.22 111.236 154.62 117.275 161.22 114.736C167.72 112.236 172.069 94.6277 173.22 89.7363C175.22 81.2363 179.22 67.2363 185.72 62.2363C192.22 57.2363 199.143 63.0021 198.22 68.2363C196.72 76.7363 189.22 99.7363 184.72 108.736C179.966 118.244 180.22 122.736 176.72 132.236C173.22 141.736 173.22 158.684 173.22 168.236C173.22 184.736 164.72 197.236 158.72 210.736C152.72 224.236 144.72 223.736 135.72 223.736C121.006 223.736 125.72 219.236 113.72 219.236C101.462 219.236 104.22 220.736 95.2195 221.236Z" fill="#F0BB94" stroke="black"/>
<path id="Pinky" d="M176.72 132.236C168.72 135.236 161.22 122.736 161.22 114.736C167.72 112.236 172.069 94.6277 173.22 89.7363C175.22 81.2363 179.22 67.2363 185.72 62.2363C192.22 57.2363 199.143 63.0021 198.22 68.2363C196.72 76.7363 189.22 99.7363 184.72 108.736C179.966 118.244 180.22 122.736 176.72 132.236Z" fill="#E86B9E" stroke="black"/>
<path id="Ring" d="M156.22 98.7364C152.22 111.236 135.22 101.736 135.22 95.7363C136.22 93.2363 140.553 74.2364 140.22 63.7364C140.72 54.7364 142.72 25.7363 147.72 20.7363C152.72 15.7363 160.22 18.7363 163.72 23.2363C167.22 27.7363 163.72 30.2363 163.72 43.2363C163.72 56.2363 160.22 86.2364 156.22 98.7364Z" fill="#9B6BC4" stroke="black"/>
<path id="Middle" d="M126.72 98.7364C129.22 106.736 99.2985 109.289 101.72 103.236C101.72 97.2364 104.22 85.8397 104.22 79.7364C104.22 69.2364 102.22 43.2363 101.72 31.2363C101.22 19.2363 105.72 11.6563 111.22 9.23634C115.22 7.47639 118.72 5.23634 122.22 9.23634C125.72 13.2363 126.72 32.7363 126.72 46.2363C126.72 59.7363 124.22 90.7364 126.72 98.7364Z" fill="#5AB87A" stroke="black"/>
<path id="Index" d="M88.7195 68.2363C88.7195 82.7363 91.2195 98.7364 95.2195 103.236L71.2195 112.736C73.1596 97.8623 65.7195 84.6266 65.7195 74.7363C65.7195 64.8461 67.2195 56.2363 65.7195 44.7363C64.4261 34.8203 64.7195 31.2363 68.2195 23.2363C71.7195 15.2363 73.2195 15.2363 80.2195 15.2363C87.2195 15.2363 88.7195 46.0947 88.7195 68.2363Z" fill="#4A90D9" stroke="black"/>
<path id="Thumb" d="M68.2196 145.736C74.7195 143.06 59.7195 215.236 61.2195 203.736C55.2196 195.642 27.0196 140.636 20.2196 132.236C11.7196 121.736 6.91802 106.219 12.2196 103.236C20.2195 98.7364 29.7195 101.736 37.7195 109.236C45.7195 116.736 45.8052 128.092 49.7195 132.236C58.2195 141.236 59.7196 149.236 68.2196 145.736Z" fill="#E8734A" stroke="black"/>
</g>
</svg>
