<svg xmlns="http://www.w3.org/2000/svg" viewBox="0 0 80 80">
  <circle cx="68" cy="58" r="8" fill="#C2007A"/>
  <circle cx="73" cy="48" r="7" fill="#E0009C"/>
  <circle cx="72" cy="40" r="6" fill="#C2007A"/>
  <ellipse cx="40" cy="62" rx="20" ry="17" fill="#FF90C0"/>
  <circle cx="22" cy="30" r="13" fill="#C2007A"/>
  <circle cx="31" cy="18" r="11" fill="#E0009C"/>
  <circle cx="44" cy="14" r="12" fill="#C2007A"/>
  <circle cx="57" cy="19" r="10" fill="#E0009C"/>
  <circle cx="63" cy="30" r="9" fill="#C2007A"/>
  <circle cx="40" cy="36" r="21" fill="#FFADD2"/>
  <ellipse cx="32" cy="32" rx="6" ry="7" fill="#00C8FF"/>
  <ellipse cx="48" cy="32" rx="6" ry="7" fill="#00C8FF"/>
  <ellipse cx="32" cy="33" rx="4" ry="5" fill="#0055CC"/>
  <ellipse cx="48" cy="33" rx="4" ry="5" fill="#0055CC"/>
  <circle cx="33.5" cy="30" r="2" fill="#FFF"/>
  <circle cx="49.5" cy="30" r="2" fill="#FFF"/>
  <circle cx="40" cy="40" r="2" fill="#FF6EB4"/>
  <path d="M30,44 Q40,52 50,44" stroke="#333" stroke-width="2" fill="none" stroke-linecap="round"/>
  <circle cx="30" cy="65" r="5" fill="#4169E1" opacity="0.9"/>
  <circle cx="40" cy="61" r="5" fill="#FFD700" opacity="0.9"/>
  <circle cx="50" cy="65" r="5" fill="#FF4500" opacity="0.9"/>
  <line x1="30" y1="70" x2="32" y2="76" stroke="#888" stroke-width="1.2"/>
  <line x1="40" y1="66" x2="40" y2="76" stroke="#888" stroke-width="1.2"/>
  <line x1="50" y1="70" x2="48" y2="76" stroke="#888" stroke-width="1.2"/>
</svg>
