<svg width="512" height="512" viewBox="0 0 512 512" xmlns="http://www.w3.org/2000/svg">

  <defs>
    <linearGradient id="bronzeGradient" x1="0%" y1="0%" x2="100%" y2="100%">
      <stop offset="0%" stop-color="#F0B36A"/>
      <stop offset="45%" stop-color="#CD7F32"/>
      <stop offset="100%" stop-color="#804A00"/>
    </linearGradient>

    <linearGradient id="bronzeEdge" x1="0%" y1="0%" x2="0%" y2="100%">
      <stop offset="0%" stop-color="#9A5A12"/>
      <stop offset="100%" stop-color="#4A2600"/>
    </linearGradient>
  </defs>

  <!-- Base -->
  <path id="key-base"
        d="M64 120 Q64 64 120 64 H392 Q448 64 448 120 V392 Q448 448 392 448 H120 Q64 448 64 392 Z"
        fill="url(#bronzeEdge)"/>

  <!-- Top -->
  <path id="key-top"
        d="M96 140 Q96 96 140 96 H372 Q416 96 416 140 V372 Q416 416 372 416 H140 Q96 416 96 372 Z"
        fill="url(#bronzeGradient)"/>

  <!-- Inner highlight -->
  <path
        d="M110 150 Q110 110 150 110 H362 Q402 110 402 150 V362 Q402 402 362 402 H150 Q110 402 110 362 Z"
        fill="none"
        stroke="#FFD6A0"
        stroke-width="6"
        opacity="0.45"/>

  <!-- Angled unicorn horn -->
  <g id="unicorn-horn-icon" transform="translate(185,260) rotate(-18)">
    <path d="M0 -70 
             C16 -30 26 15 24 65
             C10 55 -10 55 -24 65
             C-26 15 -16 -30 0 -70 Z"
          fill="none"
          stroke="#3E2723"
          stroke-width="9"
          stroke-linejoin="round"/>

    <path d="M-14 -28 C0 -20 12 -18 20 -22"
          fill="none"
          stroke="#3E2723"
          stroke-width="6"
          stroke-linecap="round"/>

    <path d="M-18 8 C-2 18 14 20 24 14"
          fill="none"
          stroke="#3E2723"
          stroke-width="6"
          stroke-linecap="round"/>

    <!-- subtle sparkle -->
    <path d="M6 -78 L9 -70 L17 -67 L9 -64 L6 -56 L3 -64 L-5 -67 L3 -70 Z"
          fill="#3E2723"/>
  </g>

  <!-- Clean, bold engraved "3" (moved left, better proportions) -->
  <path id="rank-number"
        d="M230 170
           Q300 120 360 155
           Q390 175 370 205
           Q355 225 320 230
           Q360 235 385 265
           Q405 290 380 320
           Q340 360 270 335
           L285 300
           Q330 315 350 300
           Q360 290 350 280
           Q335 265 295 270
           L295 235
           Q330 235 345 220
           Q355 210 340 195
           Q315 180 270 205 Z"
        fill="#3E2723"
        opacity="0.95"/>

</svg>